<?xml version="1.0" encoding="UTF-8" standalone="no"?>
<svg
   xmlns:dc="http://purl.org/dc/elements/1.1/"
   xmlns:cc="http://creativecommons.org/ns#"
   xmlns:rdf="http://www.w3.org/1999/02/22-rdf-syntax-ns#"
   xmlns:svg="http://www.w3.org/2000/svg"
   xmlns="http://www.w3.org/2000/svg"
   xmlns:sodipodi="http://sodipodi.sourceforge.net/DTD/sodipodi-0.dtd"
   xmlns:inkscape="http://www.inkscape.org/namespaces/inkscape"
   id="Ebene_1"
   data-name="Ebene 1"
   viewBox="0 0 603.30963 118.37996"
   version="1.1"
   sodipodi:docname="open_decision_logo.svg"
   width="603.30963"
   height="118.37996"
   inkscape:version="1.0.1 (3bc2e813f5, 2020-09-07, custom)">
  <metadata
     id="metadata37">
    <rdf:RDF>
      <cc:Work
         rdf:about="">
        <dc:format>image/svg+xml</dc:format>
        <dc:type
           rdf:resource="http://purl.org/dc/dcmitype/StillImage" />
      </cc:Work>
    </rdf:RDF>
  </metadata>
  <sodipodi:namedview
     pagecolor="#ffffff"
     bordercolor="#666666"
     borderopacity="1"
     objecttolerance="10"
     gridtolerance="10"
     guidetolerance="10"
     inkscape:pageopacity="0"
     inkscape:pageshadow="2"
     inkscape:window-width="2560"
     inkscape:window-height="1403"
     id="namedview35"
     showgrid="false"
     inkscape:zoom="0.83235725"
     inkscape:cx="130.73946"
     inkscape:cy="89.723656"
     inkscape:window-x="2560"
     inkscape:window-y="0"
     inkscape:window-maximized="1"
     inkscape:current-layer="Ebene_1"
     inkscape:document-rotation="0" />
  <defs
     id="defs4">
    <style
       id="style2">.cls-1,.cls-2{stroke:#000;stroke-miterlimit:10;}.cls-2{fill:none;}</style>
  </defs>
  <g
     id="open">
    <path
       class="cls-1"
       d="m 103.74913,100.64366 a 20.33,20.33 0 0 1 -10.230002,-2.550004 18.33,18.33 0 0 1 -7,-7 22.24,22.24 0 0 1 0,-20.68 18.4,18.4 0 0 1 7,-7 21.74,21.74 0 0 1 20.430002,0 18.75,18.75 0 0 1 7,7 22.09,22.09 0 0 1 0,20.68 18.39,18.39 0 0 1 -7,7 20.3,20.3 0 0 1 -10.2,2.550004 z m 0,-6.000004 a 13.19,13.19 0 0 0 6.9,-1.79 12.78,12.78 0 0 0 4.73,-4.92 14.65,14.65 0 0 0 1.73,-7.21 14.86,14.86 0 0 0 -1.73,-7.25 12.69,12.69 0 0 0 -4.73,-5 14.17,14.17 0 0 0 -13.790002,0 12.78,12.78 0 0 0 -4.74,5 15,15 0 0 0 -1.72,7.25 14.76,14.76 0 0 0 1.72,7.21 12.88,12.88 0 0 0 4.74,4.92 13.18,13.18 0 0 0 6.890002,1.87 z"
       id="path6" />
    <path
       class="cls-1"
       d="m 137.86913,117.15366 a 3.19,3.19 0 0 1 -3.37,-3.37 V 80.723656 a 20.52,20.52 0 0 1 2.69,-10.2 19.29,19.29 0 0 1 7.07,-7.11 19.56,19.56 0 0 1 10,-2.58 19.87,19.87 0 0 1 10.23,2.62 19.55,19.55 0 0 1 7.11,7.11 20,20 0 0 1 2.6,10.16 20.86,20.86 0 0 1 -2.45,10.23 18.6,18.6 0 0 1 -6.71,7.11 18.93,18.93 0 0 1 -17.66,0.75 17.36,17.36 0 0 1 -6.1,-5 v 20.000004 a 3.21,3.21 0 0 1 -3.38,3.37 z m 16.44,-22.430004 a 12.87,12.87 0 0 0 6.82,-1.83 13.33,13.33 0 0 0 4.78,-5 14.35,14.35 0 0 0 1.76,-7.1 14.55,14.55 0 0 0 -1.76,-7.18 13.33,13.33 0 0 0 -4.78,-5 13.13,13.13 0 0 0 -18.38,5 15.76,15.76 0 0 0 0,14.32 12.73,12.73 0 0 0 4.74,5 13.06,13.06 0 0 0 6.82,1.79 z"
       id="path8" />
    <path
       class="cls-1"
       d="m 203.26913,100.64366 a 21.23,21.23 0 0 1 -10.52,-2.550004 18.45,18.45 0 0 1 -7.18,-7 20.3,20.3 0 0 1 -2.58,-10.3 21.37,21.37 0 0 1 2.44,-10.38 18,18 0 0 1 6.78,-7 19.29,19.29 0 0 1 10,-2.55 18,18 0 0 1 9.58,2.48 16.32,16.32 0 0 1 6.21,6.82 22.17,22.17 0 0 1 2.15,10 2.79,2.79 0 0 1 -0.86,2.12 3.06,3.06 0 0 1 -2.22,0.82 h -29.45 v -5.38 h 29.51 l -3,2.08 a 15.52,15.52 0 0 0 -1.43,-6.78 11.29,11.29 0 0 0 -4.09,-4.7 11.52,11.52 0 0 0 -6.39,-1.73 13.28,13.28 0 0 0 -7.08,1.83 11.77,11.77 0 0 0 -4.52,5.07 16.74,16.74 0 0 0 -1.54,7.32 14.37,14.37 0 0 0 1.83,7.28 13.32,13.32 0 0 0 5,5 14.56,14.56 0 0 0 7.36,1.83 14.25,14.25 0 0 0 4.78,-0.86 15,15 0 0 0 3.91,-2 3.9,3.9 0 0 1 2.15,-0.76 2.9,2.9 0 0 1 2,0.69 3.12,3.12 0 0 1 1.22,2.19 2.31,2.31 0 0 1 -1.07,2 19.48,19.48 0 0 1 -6,3.2 21.69,21.69 0 0 1 -6.99,1.260004 z"
       id="path10" />
    <path
       class="cls-1"
       d="m 232.84913,100.43366 a 3.25,3.25 0 0 1 -2.44,-1.000004 3.35,3.35 0 0 1 -0.93,-2.41 v -32.56 a 3.37,3.37 0 1 1 6.74,0 v 32.59 a 3.35,3.35 0 0 1 -0.93,2.41 3.26,3.26 0 0 1 -2.44,0.970004 z m 29.94,0 a 3.3,3.3 0 0 1 -2.41,-1.000004 3.26,3.26 0 0 1 -1,-2.41 v -18 a 13.62,13.62 0 0 0 -1.54,-6.85 9.73,9.73 0 0 0 -4.24,-4 13.42,13.42 0 0 0 -6.06,-1.33 12.61,12.61 0 0 0 -5.79,1.28 10.81,10.81 0 0 0 -4.06,3.45 8.32,8.32 0 0 0 -1.51,4.88 h -4.38 a 15.46,15.46 0 0 1 2.3,-8.08 15.8,15.8 0 0 1 6,-5.6 17.81,17.81 0 0 1 8.54,-2 18.47,18.47 0 0 1 8.91,2.12 15.41,15.41 0 0 1 6.24,6.21 20.08,20.08 0 0 1 2.3,10 v 18 a 3.31,3.31 0 0 1 -3.37,3.380004 z"
       id="path12" />
  </g>
  <g
     id="decision">
    <path
       class="cls-1"
       d="m 317.12913,100.64366 a 19.62,19.62 0 0 1 -10.09,-2.620004 19.3,19.3 0 0 1 -7.1,-7.14 19.93,19.93 0 0 1 -2.62,-10.16 20.88,20.88 0 0 1 2.43,-10.19 18.7,18.7 0 0 1 6.67,-7.11 17.78,17.78 0 0 1 9.55,-2.62 18.13,18.13 0 0 1 8.15,1.83 16.75,16.75 0 0 1 6.07,5 v -20 a 3.25,3.25 0 0 1 1,-2.44 3.35,3.35 0 0 1 2.41,-0.93 3.19,3.19 0 0 1 3.37,3.37 v 33.09 a 19.9,19.9 0 0 1 -2.62,10.19 19,19 0 0 1 -7.1,7.11 19.91,19.91 0 0 1 -10.12,2.620004 z m 0,-6.000004 a 12.87,12.87 0 0 0 6.86,-1.83 13.29,13.29 0 0 0 4.73,-5 14.48,14.48 0 0 0 1.76,-7.14 14.25,14.25 0 0 0 -1.76,-7.15 13.46,13.46 0 0 0 -4.73,-4.95 13.62,13.62 0 0 0 -13.64,0 13.21,13.21 0 0 0 -4.81,4.95 14.25,14.25 0 0 0 -1.79,7.2 14.48,14.48 0 0 0 1.76,7.14 13,13 0 0 0 4.81,5 12.91,12.91 0 0 0 6.81,1.86 z"
       id="path14" />
    <path
       class="cls-1"
       d="m 368.09913,100.64366 a 21.23,21.23 0 0 1 -10.48,-2.550004 18.38,18.38 0 0 1 -7.18,-7 20.3,20.3 0 0 1 -2.58,-10.3 21.37,21.37 0 0 1 2.44,-10.38 17.84,17.84 0 0 1 6.78,-7 19.28,19.28 0 0 1 9.94,-2.55 18.07,18.07 0 0 1 9.59,2.48 16.32,16.32 0 0 1 6.21,6.82 22.3,22.3 0 0 1 2.15,10 2.83,2.83 0 0 1 -0.86,2.12 3.08,3.08 0 0 1 -2.23,0.82 h -29.43 v -5.38 h 29.51 l -3,2.08 a 15.38,15.38 0 0 0 -1.44,-6.78 11.22,11.22 0 0 0 -4.09,-4.7 11.47,11.47 0 0 0 -6.39,-1.73 13.27,13.27 0 0 0 -7.07,1.83 11.77,11.77 0 0 0 -4.52,5.07 16.74,16.74 0 0 0 -1.54,7.32 14.37,14.37 0 0 0 1.83,7.28 13.32,13.32 0 0 0 5,5 14.54,14.54 0 0 0 7.36,1.83 14.15,14.15 0 0 0 4.77,-0.86 14.9,14.9 0 0 0 3.92,-2 3.87,3.87 0 0 1 2.15,-0.76 2.9,2.9 0 0 1 2,0.69 3.16,3.16 0 0 1 1.22,2.19 2.29,2.29 0 0 1 -1.08,2 19.48,19.48 0 0 1 -6,3.2 21.63,21.63 0 0 1 -6.98,1.260004 z"
       id="path16" />
    <path
       class="cls-1"
       d="m 410.59913,100.64366 a 19.65,19.65 0 0 1 -10.19,-2.620004 18.86,18.86 0 0 1 -7,-7.1 20.2,20.2 0 0 1 -2.55,-10.2 21.19,21.19 0 0 1 2.47,-10.34 18.19,18.19 0 0 1 6.82,-7.07 19.29,19.29 0 0 1 10,-2.55 17.82,17.82 0 0 1 14.21,6.6 2.33,2.33 0 0 1 0.68,2.16 3.38,3.38 0 0 1 -1.47,2 2.6,2.6 0 0 1 -2,0.43 3.9,3.9 0 0 1 -2.05,-1.15 12.1,12.1 0 0 0 -9.33,-4.09 12.54,12.54 0 0 0 -6.68,1.76 12.09,12.09 0 0 0 -4.49,4.92 15.92,15.92 0 0 0 -1.61,7.32 14.71,14.71 0 0 0 1.69,7.14 12.69,12.69 0 0 0 11.5,6.87 15.38,15.38 0 0 0 4.63,-0.64 10.45,10.45 0 0 0 3.7,-2.08 3.88,3.88 0 0 1 2.19,-0.94 2.72,2.72 0 0 1 2,0.65 3.06,3.06 0 0 1 1.26,2.12 2.37,2.37 0 0 1 -0.83,2 18.21,18.21 0 0 1 -12.95,4.810004 z"
       id="path18" />
    <path
       class="cls-1"
       d="m 440.09913,54.343656 a 4.47,4.47 0 0 1 -3.12,-7.65 4.53,4.53 0 0 1 6.25,0 4.25,4.25 0 0 1 1.33,3.2 4.32,4.32 0 0 1 -1.3,3.12 4.21,4.21 0 0 1 -3.16,1.33 z m 0,46.000004 a 3.21,3.21 0 0 1 -3.37,-3.380004 v -32.5 a 3.38,3.38 0 1 1 6.75,0 v 32.52 a 3.21,3.21 0 0 1 -3.38,3.380004 z"
       id="path20" />
    <path
       class="cls-1"
       d="m 471.32913,100.64366 a 26.64,26.64 0 0 1 -9,-1.500004 17.26,17.26 0 0 1 -6.68,-4 2.84,2.84 0 0 1 -0.82,-2.41 3.23,3.23 0 0 1 1.32,-2.19 3.53,3.53 0 0 1 2.59,-0.86 3.22,3.22 0 0 1 2.15,1.15 11.79,11.79 0 0 0 4.17,2.73 15.68,15.68 0 0 0 6.1,1.14 c 3,0 5.28,-0.5 6.78,-1.5 a 4.67,4.67 0 0 0 2.34,-3.81 4.75,4.75 0 0 0 -2.23,-3.91 q -2.22,-1.62 -7.82,-2.62 -7.26,-1.37 -10.56,-4.24 a 9.37,9.37 0 0 1 -1.22,-13 12.63,12.63 0 0 1 5.42,-3.59 22.69,22.69 0 0 1 15.44,0.36 14.44,14.44 0 0 1 5.78,4.28 3.23,3.23 0 0 1 0.79,2.22 2.53,2.53 0 0 1 -1.22,1.94 3.17,3.17 0 0 1 -2.45,0.47 4.76,4.76 0 0 1 -2.44,-1.19 10.05,10.05 0 0 0 -3.95,-2.62 15.24,15.24 0 0 0 -5,-0.75 11.5,11.5 0 0 0 -5.67,1.25 3.85,3.85 0 0 0 -2.23,3.48 4.27,4.27 0 0 0 0.76,2.48 6.2,6.2 0 0 0 2.8,2 30.55,30.55 0 0 0 6,1.58 29.53,29.53 0 0 1 8.51,2.69 11.29,11.29 0 0 1 4.45,3.87 9.5,9.5 0 0 1 1.33,5 10.24,10.24 0 0 1 -1.83,6 12.26,12.26 0 0 1 -5.24,4.13 20.81,20.81 0 0 1 -8.37,1.420004 z"
       id="path22" />
    <path
       class="cls-1"
       d="m 500.40913,54.343656 a 4.48,4.48 0 0 1 -3.13,-7.65 4.53,4.53 0 0 1 6.25,0 4.25,4.25 0 0 1 1.33,3.2 4.32,4.32 0 0 1 -1.29,3.12 4.25,4.25 0 0 1 -3.16,1.33 z m 0,46.000004 a 3.22,3.22 0 0 1 -3.38,-3.380004 v -32.5 a 3.21,3.21 0 0 1 3.38,-3.37 3.19,3.19 0 0 1 3.37,3.37 v 32.52 a 3.21,3.21 0 0 1 -3.37,3.380004 z"
       id="path24" />
    <path
       class="cls-1"
       d="m 535.36913,100.64366 a 20.33,20.33 0 0 1 -10.23,-2.550004 18.36,18.36 0 0 1 -7,-7 22.24,22.24 0 0 1 0,-20.68 18.43,18.43 0 0 1 7,-7 20.33,20.33 0 0 1 10.23,-2.55 20.13,20.13 0 0 1 10.19,2.55 18.78,18.78 0 0 1 7,7 22.12,22.12 0 0 1 0,20.68 18.39,18.39 0 0 1 -7,7 20.26,20.26 0 0 1 -10.19,2.550004 z m 0,-6.000004 a 13.18,13.18 0 0 0 6.89,-1.79 12.88,12.88 0 0 0 4.74,-4.92 14.65,14.65 0 0 0 1.75,-7.21 14.86,14.86 0 0 0 -1.72,-7.25 12.78,12.78 0 0 0 -4.74,-5 14.16,14.16 0 0 0 -13.78,0 12.78,12.78 0 0 0 -4.74,5 14.86,14.86 0 0 0 -1.72,7.25 14.65,14.65 0 0 0 1.72,7.21 12.88,12.88 0 0 0 4.74,4.92 13.16,13.16 0 0 0 6.86,1.87 z"
       id="path26" />
    <path
       class="cls-1"
       d="m 569.46913,100.43366 a 3.25,3.25 0 0 1 -2.44,-1.000004 3.32,3.32 0 0 1 -0.94,-2.41 v -32.56 a 3.38,3.38 0 1 1 6.75,0 v 32.59 a 3.35,3.35 0 0 1 -0.93,2.41 3.26,3.26 0 0 1 -2.44,0.970004 z m 29.93,0 a 3.31,3.31 0 0 1 -3.37,-3.380004 v -18 a 13.72,13.72 0 0 0 -1.54,-6.85 9.78,9.78 0 0 0 -4.24,-4 13.5,13.5 0 0 0 -6.07,-1.33 12.64,12.64 0 0 0 -5.78,1.29 10.78,10.78 0 0 0 -4,3.45 8.25,8.25 0 0 0 -1.51,4.88 h -4.38 a 15.46,15.46 0 0 1 2.3,-8.08 15.8,15.8 0 0 1 6,-5.6 17.78,17.78 0 0 1 8.54,-2 18.43,18.43 0 0 1 8.9,2.12 15.38,15.38 0 0 1 6.25,6.21 20.08,20.08 0 0 1 2.3,10 v 18 a 3.31,3.31 0 0 1 -3.38,3.380004 z"
       id="path28" />
  </g>
  <g
     id="logo">
    <path
       d="m 99.749128,0.72365614 c -7,0.99999996 -11,6.99999996 -13,12.99999986 -9,1 -19,-2 -27,2 -9,6 -11,17 -10,27 -6,-2 -11,-2 -17,-2 a 21,21 0 0 0 -13,-13 18.09,18.09 0 0 0 -17,7 19.13,19.13 0 0 0 0,18 c 4,5 10,9 17,7 6,-2 11,-5 12,-13 6,0 17,-2 18,7 1,21 -2,42 1,63.000004 0,1 3,2 3,0 5,-29.000004 0,-56.000004 3,-85.000004 1,-3 1,-7 4,-9 8,-6 18,-2 27,-3 0,6 6,11 12,13 9.000002,2 17.000002,-5 19.000002,-13 A 16.54,16.54 0 0 0 99.749128,0.72365614 Z m -86,51.99999986 c -3,0 -6,-3 -7,-6 -1,-6 3,-13 9,-13 7,0 12,6 10,13 a 5.5,5.5 0 0 1 -3,5 c -3,1 -5,3 -9,1 z m 86,-27 c -5,-1 -7,-5 -7,-10 A 11.3,11.3 0 0 1 105.74913,6.7236561 c 7,2 9,9.9999999 5,15.9999999 -2,3 -6,5 -11.000002,3 z"
       id="path30" />
    <path
       class="cls-2"
       d="m 99.749128,0.72365614 c -7,0.99999996 -11,6.99999996 -13,12.99999986 -9,1 -19,-2 -27,2 -9,6 -11,17 -10,27 -6,-2 -11,-2 -17,-2 a 21,21 0 0 0 -13,-13 18.09,18.09 0 0 0 -17,7 19.13,19.13 0 0 0 0,18 c 4,5 10,9 17,7 6,-2 11,-5 12,-13 6,0 17,-2 18,7 1,21 -2,42 1,63.000004 0,1 3,2 3,0 5,-29.000004 0,-56.000004 3,-85.000004 1,-3 1,-7 4,-9 8,-6 18,-2 27,-3 0,6 6,11 12,13 9.000002,2 17.000002,-5 19.000002,-13 A 16.54,16.54 0 0 0 99.749128,0.72365614 Z m -86,51.99999986 c -3,0 -6,-3 -7,-6 -1,-6 3,-13 9,-13 7,0 12,6 10,13 a 5.5,5.5 0 0 1 -3,5 c -3,1 -5,3 -9,1 z m 86,-27 c -5,-1 -7,-5 -7,-10 A 11.3,11.3 0 0 1 105.74913,6.7236561 c 7,2 9,9.9999999 5,15.9999999 -2,3 -6,5 -11.000002,3 z"
       id="path32" />
  </g>
</svg>
