<svg id="Ebene_1" data-name="Ebene 1" xmlns="http://www.w3.org/2000/svg" viewBox="0 0 573.05 214.39"><defs><style>.cls-1,.cls-2{fill:#4733d1;}.cls-2{stroke:#000;stroke-miterlimit:10;stroke-width:0.25px;}</style></defs><path class="cls-1" d="M541.25,357.85a16.73,16.73,0,0,1-8.52-2.12,15.33,15.33,0,0,1-5.82-5.84,18.52,18.52,0,0,1,0-17.17,15.35,15.35,0,0,1,5.82-5.85,18.16,18.16,0,0,1,17,0,15.42,15.42,0,0,1,5.82,5.85,18.6,18.6,0,0,1,0,17.17,15.09,15.09,0,0,1-5.78,5.84A16.77,16.77,0,0,1,541.25,357.85Zm0-5.37a10.41,10.41,0,0,0,5.49-1.43,10,10,0,0,0,3.73-3.93,12.13,12.13,0,0,0,1.34-5.79,12.29,12.29,0,0,0-1.34-5.81,10,10,0,0,0-3.73-4,11.17,11.17,0,0,0-11,0,10.17,10.17,0,0,0-3.76,4,12.07,12.07,0,0,0-1.37,5.81,11.91,11.91,0,0,0,1.37,5.79,10.23,10.23,0,0,0,3.76,3.93A10.39,10.39,0,0,0,541.25,352.48Z" transform="translate(-383.56 -233.52)"/><path class="cls-1" d="M569.75,371.56a2.92,2.92,0,0,1-2.17-.86,3,3,0,0,1-.87-2.18V341.33a17.19,17.19,0,0,1,2.21-8.46,16,16,0,0,1,5.84-5.94,16.45,16.45,0,0,1,22.63,5.94,16.55,16.55,0,0,1,2.18,8.46,17.6,17.6,0,0,1-2,8.44,15.43,15.43,0,0,1-5.45,5.9,14.3,14.3,0,0,1-7.82,2.18,14.46,14.46,0,0,1-6.47-1.46,15.33,15.33,0,0,1-5-4v16.1a3,3,0,0,1-.84,2.18A2.92,2.92,0,0,1,569.75,371.56Zm13.36-19.08a10.13,10.13,0,0,0,5.43-1.46,10.52,10.52,0,0,0,3.78-4,12.33,12.33,0,0,0,0-11.45,10.62,10.62,0,0,0-3.78-4,10.75,10.75,0,0,0-10.82,0,10.34,10.34,0,0,0-3.79,4,12.65,12.65,0,0,0,0,11.45,10.25,10.25,0,0,0,3.79,4A10.14,10.14,0,0,0,583.11,352.48Z" transform="translate(-383.56 -233.52)"/><path class="cls-1" d="M624,357.85a17.85,17.85,0,0,1-8.8-2.12,15.51,15.51,0,0,1-6-5.84,16.66,16.66,0,0,1-2.18-8.56,17.52,17.52,0,0,1,2.06-8.61,15.09,15.09,0,0,1,5.69-5.85,16.32,16.32,0,0,1,8.35-2.11,15,15,0,0,1,8,2.05,13.4,13.4,0,0,1,5.1,5.67,18.79,18.79,0,0,1,1.76,8.32,2.5,2.5,0,0,1-.78,1.88,2.73,2.73,0,0,1-2,.74h-24v-4.77H635l-2.45,1.67a12.85,12.85,0,0,0-1.19-5.34,8.7,8.7,0,0,0-8.29-5.09,10.78,10.78,0,0,0-5.81,1.49,9.6,9.6,0,0,0-3.67,4.08,13.41,13.41,0,0,0-1.25,5.87,11.37,11.37,0,0,0,1.49,5.85,10.8,10.8,0,0,0,4.11,4.05,11.93,11.93,0,0,0,6,1.49,11.45,11.45,0,0,0,3.78-.68,12,12,0,0,0,3.13-1.58,3.37,3.37,0,0,1,1.94-.69,2.61,2.61,0,0,1,1.82.63,2.83,2.83,0,0,1,1.07,2,2.11,2.11,0,0,1-1,1.85,16.4,16.4,0,0,1-5,2.63A18.21,18.21,0,0,1,624,357.85Z" transform="translate(-383.56 -233.52)"/><path class="cls-1" d="M648.7,357.67a2.94,2.94,0,0,1-3-3V328a3,3,0,0,1,.86-2.21,3,3,0,0,1,5.22,2.21v26.59a3,3,0,0,1-.83,2.18A3,3,0,0,1,648.7,357.67Zm24.51,0a3,3,0,0,1-2.18-.86,2.94,2.94,0,0,1-.86-2.18V340a10.84,10.84,0,0,0-1.26-5.54,7.84,7.84,0,0,0-3.37-3.19,10.79,10.79,0,0,0-4.86-1.05,9.93,9.93,0,0,0-4.53,1,8.49,8.49,0,0,0-3.22,2.71,6.67,6.67,0,0,0-1.19,3.91H648a12.55,12.55,0,0,1,1.82-6.71,13.05,13.05,0,0,1,5-4.68,14.47,14.47,0,0,1,7.1-1.73,15.14,15.14,0,0,1,7.36,1.76,12.66,12.66,0,0,1,5.13,5.15,17.09,17.09,0,0,1,1.88,8.35v14.67a3,3,0,0,1-3,3Z" transform="translate(-383.56 -233.52)"/><path class="cls-1" d="M718.58,357.85a16.24,16.24,0,0,1-8.38-2.18,16.06,16.06,0,0,1-5.9-5.93,16.59,16.59,0,0,1-2.18-8.47,17.56,17.56,0,0,1,2-8.43,15.48,15.48,0,0,1,5.46-5.91,14.35,14.35,0,0,1,7.81-2.17,14.69,14.69,0,0,1,11.51,5.42v-16.1a2.91,2.91,0,0,1,.86-2.2,3,3,0,0,1,2.18-.84,2.88,2.88,0,0,1,3,3v27.19a16.59,16.59,0,0,1-2.18,8.47,16.05,16.05,0,0,1-14.22,8.11Zm0-5.37A10.13,10.13,0,0,0,724,351a10.24,10.24,0,0,0,3.75-4,11.9,11.9,0,0,0,1.38-5.73,11.67,11.67,0,0,0-1.38-5.72,10.45,10.45,0,0,0-3.75-4,10.75,10.75,0,0,0-10.82,0,10.63,10.63,0,0,0-3.82,4,11.46,11.46,0,0,0-1.4,5.72,11.69,11.69,0,0,0,1.4,5.73,10.41,10.41,0,0,0,3.82,4A10.11,10.11,0,0,0,718.58,352.48Z" transform="translate(-383.56 -233.52)"/><path class="cls-1" d="M761,357.85a17.85,17.85,0,0,1-8.8-2.12,15.51,15.51,0,0,1-6-5.84,16.66,16.66,0,0,1-2.18-8.56,17.52,17.52,0,0,1,2.06-8.61,15.09,15.09,0,0,1,5.69-5.85,16.32,16.32,0,0,1,8.35-2.11,15,15,0,0,1,8,2.05,13.4,13.4,0,0,1,5.1,5.67A18.79,18.79,0,0,1,775,340.8a2.5,2.5,0,0,1-.78,1.88,2.73,2.73,0,0,1-2,.74h-24v-4.77h23.85l-2.45,1.67a12.85,12.85,0,0,0-1.19-5.34,8.7,8.7,0,0,0-8.29-5.09,10.8,10.8,0,0,0-5.81,1.49,9.6,9.6,0,0,0-3.67,4.08,13.41,13.41,0,0,0-1.25,5.87,11.37,11.37,0,0,0,1.49,5.85,10.8,10.8,0,0,0,4.11,4.05,11.93,11.93,0,0,0,6,1.49,11.45,11.45,0,0,0,3.78-.68,12,12,0,0,0,3.13-1.58,3.37,3.37,0,0,1,1.94-.69,2.61,2.61,0,0,1,1.82.63,2.83,2.83,0,0,1,1.07,2,2.11,2.11,0,0,1-.95,1.85,16.4,16.4,0,0,1-5,2.63A18.21,18.21,0,0,1,761,357.85Z" transform="translate(-383.56 -233.52)"/><path class="cls-1" d="M796.33,357.85a16.41,16.41,0,0,1-8.49-2.18,15.7,15.7,0,0,1-5.85-5.9,16.79,16.79,0,0,1-2.11-8.44,17.36,17.36,0,0,1,2.08-8.58,15.28,15.28,0,0,1,5.73-5.88,16.29,16.29,0,0,1,8.35-2.11,15.19,15.19,0,0,1,6.44,1.34,15.45,15.45,0,0,1,5.24,4,2.15,2.15,0,0,1,.6,2,3.14,3.14,0,0,1-1.31,1.79,2.27,2.27,0,0,1-1.85.39,3.63,3.63,0,0,1-1.85-1,9.61,9.61,0,0,0-7.27-3.1,10.24,10.24,0,0,0-5.37,1.4,9.81,9.81,0,0,0-3.64,3.91,12.61,12.61,0,0,0-1.31,5.9,12,12,0,0,0,1.34,5.73,10.23,10.23,0,0,0,3.73,4,10.35,10.35,0,0,0,5.54,1.46A12.24,12.24,0,0,0,800,352a8.88,8.88,0,0,0,2.89-1.58,3.61,3.61,0,0,1,2-.87,2.34,2.34,0,0,1,1.79.57,2.83,2.83,0,0,1,1.13,1.88,2.21,2.21,0,0,1-.71,1.87A15.12,15.12,0,0,1,796.33,357.85Z" transform="translate(-383.56 -233.52)"/><path class="cls-1" d="M821,319.69a4,4,0,1,1,2.77-1.16A3.79,3.79,0,0,1,821,319.69Zm0,37.92a2.94,2.94,0,0,1-3-3V328a3,3,0,0,1,.86-2.21,3,3,0,0,1,5.22,2.21v26.53a3,3,0,0,1-.83,2.18A3,3,0,0,1,821,357.61Z" transform="translate(-383.56 -233.52)"/><path class="cls-1" d="M847.26,357.85a22.71,22.71,0,0,1-7.73-1.28,14.89,14.89,0,0,1-5.51-3.25,2.59,2.59,0,0,1-.75-2.18,2.85,2.85,0,0,1,1.17-2,3.08,3.08,0,0,1,2.35-.81,3.26,3.26,0,0,1,2,1A9.4,9.4,0,0,0,842,351.5a12.16,12.16,0,0,0,5,1,10,10,0,0,0,5.27-1.13,3.49,3.49,0,0,0,1.88-2.92,3.65,3.65,0,0,0-1.7-3.1c-1.17-.88-3.31-1.59-6.41-2.15q-6-1.19-8.73-3.58a7.46,7.46,0,0,1-2.72-5.84,7.3,7.3,0,0,1,1.79-5,11,11,0,0,1,4.6-3,17.59,17.59,0,0,1,5.84-1,18.06,18.06,0,0,1,7,1.25,11.83,11.83,0,0,1,4.83,3.46,2.73,2.73,0,0,1,.78,2,2.3,2.3,0,0,1-1,1.75,2.93,2.93,0,0,1-2.27.42,4.26,4.26,0,0,1-2.21-1.07,8,8,0,0,0-3.22-2,13.37,13.37,0,0,0-4-.54,9.93,9.93,0,0,0-4.44.9,2.82,2.82,0,0,0-1.82,2.62,3.52,3.52,0,0,0,.56,1.94,4.81,4.81,0,0,0,2.24,1.55,27.66,27.66,0,0,0,4.89,1.34,26.57,26.57,0,0,1,7.07,2.27,9.35,9.35,0,0,1,3.72,3.19,7.73,7.73,0,0,1,1.14,4.2,8.72,8.72,0,0,1-1.47,4.95,10,10,0,0,1-4.29,3.52A16.86,16.86,0,0,1,847.26,357.85Z" transform="translate(-383.56 -233.52)"/><path class="cls-1" d="M871.4,319.69a4,4,0,1,1,2.78-1.16A3.81,3.81,0,0,1,871.4,319.69Zm0,37.92a3,3,0,0,1-3-3V328a2.92,2.92,0,0,1,.87-2.21,3,3,0,0,1,5.22,2.21v26.53a3,3,0,0,1-.84,2.18A3,3,0,0,1,871.4,357.61Z" transform="translate(-383.56 -233.52)"/><path class="cls-1" d="M900.56,357.85a16.79,16.79,0,0,1-8.53-2.12,15.37,15.37,0,0,1-5.81-5.84,18.44,18.44,0,0,1,0-17.17,15.4,15.4,0,0,1,5.81-5.85,18.18,18.18,0,0,1,17,0,15.4,15.4,0,0,1,5.81,5.85,18.56,18.56,0,0,1,0,17.17,15.16,15.16,0,0,1-5.78,5.84A16.79,16.79,0,0,1,900.56,357.85Zm0-5.37a10.41,10.41,0,0,0,5.49-1.43,9.92,9.92,0,0,0,3.72-3.93,12,12,0,0,0,1.35-5.79,12.18,12.18,0,0,0-1.35-5.81,9.87,9.87,0,0,0-3.72-4,11.17,11.17,0,0,0-11,0,10.1,10.1,0,0,0-3.76,4,12,12,0,0,0-1.37,5.81,11.8,11.8,0,0,0,1.37,5.79,10.15,10.15,0,0,0,3.76,3.93A10.37,10.37,0,0,0,900.56,352.48Z" transform="translate(-383.56 -233.52)"/><path class="cls-1" d="M929.06,357.67a3,3,0,0,1-3-3V328a2.92,2.92,0,0,1,.87-2.21,3.3,3.3,0,0,1,4.38,0,3,3,0,0,1,.83,2.21v26.59a3,3,0,0,1-.83,2.18A3,3,0,0,1,929.06,357.67Zm24.51,0a2.94,2.94,0,0,1-3-3V340a11,11,0,0,0-1.25-5.54,7.9,7.9,0,0,0-3.37-3.19,10.79,10.79,0,0,0-4.86-1.05,10,10,0,0,0-4.54,1,8.49,8.49,0,0,0-3.22,2.71,6.67,6.67,0,0,0-1.19,3.91h-3.75a12.46,12.46,0,0,1,1.82-6.71,13.09,13.09,0,0,1,5-4.68,14.49,14.49,0,0,1,7.1-1.73,15.11,15.11,0,0,1,7.36,1.76,12.66,12.66,0,0,1,5.13,5.15,17.09,17.09,0,0,1,1.88,8.35v14.67a3,3,0,0,1-3,3Z" transform="translate(-383.56 -233.52)"/><path class="cls-1" d="M540.21,412.31a12.27,12.27,0,0,1-6.36-1.66,12.14,12.14,0,0,1-4.45-4.52,13.13,13.13,0,0,1-1.69-6.45V379a2.24,2.24,0,0,1,.66-1.68,2.32,2.32,0,0,1,1.66-.63,2.18,2.18,0,0,1,2.32,2.31v12.27a11.68,11.68,0,0,1,3.84-3,11.53,11.53,0,0,1,10.88.54,11.84,11.84,0,0,1,4.15,4.5,13.34,13.34,0,0,1,1.53,6.43,12.7,12.7,0,0,1-1.66,6.45,12.25,12.25,0,0,1-10.88,6.18Zm0-4.09a7.76,7.76,0,0,0,4.13-1.11,8.14,8.14,0,0,0,2.89-3.07,8.93,8.93,0,0,0,1.06-4.36,8.77,8.77,0,0,0-1.06-4.36,8.22,8.22,0,0,0-2.89-3,8.14,8.14,0,0,0-8.24,0,7.91,7.91,0,0,0-2.89,3,8.87,8.87,0,0,0-1,4.36,9,9,0,0,0,1,4.36,7.78,7.78,0,0,0,7,4.18Z" transform="translate(-383.56 -233.52)"/><path class="cls-1" d="M568.1,411.13a2.11,2.11,0,0,1-1.61.07,2.42,2.42,0,0,1-1.21-1.16l-10.4-19.76a1.85,1.85,0,0,1-.11-1.66,2.17,2.17,0,0,1,4-.07l10,19.76a2.77,2.77,0,0,1,.34,1.66A1.45,1.45,0,0,1,568.1,411.13ZM562.74,423a2.88,2.88,0,0,1-1.09-.27,1.9,1.9,0,0,1-1.09-2.86l13.86-31.3a2,2,0,0,1,2.86-1.1,1.9,1.9,0,0,1,1.13,2.87l-13.9,31.25A1.85,1.85,0,0,1,562.74,423Z" transform="translate(-383.56 -233.52)"/><path class="cls-1" d="M607.35,412.31a12.86,12.86,0,0,1-6.49-1.61,11.64,11.64,0,0,1-4.43-4.46,14,14,0,0,1,0-13.08,11.62,11.62,0,0,1,4.43-4.45,13.81,13.81,0,0,1,12.94,0,11.62,11.62,0,0,1,4.43,4.45,14.09,14.09,0,0,1,0,13.08,11.5,11.5,0,0,1-4.4,4.46A12.89,12.89,0,0,1,607.35,412.31Zm0-4.09a7.92,7.92,0,0,0,4.18-1.09,7.66,7.66,0,0,0,2.84-3,9.2,9.2,0,0,0,1-4.41,9.37,9.37,0,0,0-1-4.43,7.56,7.56,0,0,0-2.84-3,8.49,8.49,0,0,0-8.36,0,7.75,7.75,0,0,0-2.86,3,9.14,9.14,0,0,0-1,4.43,9,9,0,0,0,1,4.41,7.86,7.86,0,0,0,2.86,3A8,8,0,0,0,607.35,408.22Z" transform="translate(-383.56 -233.52)"/><path class="cls-1" d="M629.07,422.76a2.26,2.26,0,0,1-2.32-2.32V399.72a13.12,13.12,0,0,1,1.68-6.45,12.21,12.21,0,0,1,4.45-4.52,12.53,12.53,0,0,1,17.24,4.52,12.6,12.6,0,0,1,1.66,6.45,13.42,13.42,0,0,1-1.52,6.43,11.8,11.8,0,0,1-4.16,4.5,11.5,11.5,0,0,1-10.88.55,11.68,11.68,0,0,1-3.84-3v12.26a2.3,2.3,0,0,1-.63,1.66A2.24,2.24,0,0,1,629.07,422.76Zm10.17-14.54a7.77,7.77,0,0,0,4.14-1.11,8.05,8.05,0,0,0,2.88-3.05,8.81,8.81,0,0,0,1.07-4.34,8.93,8.93,0,0,0-1.07-4.38,8,8,0,0,0-2.88-3,7.95,7.95,0,0,0-11.13,3,9,9,0,0,0-1,4.38,8.9,8.9,0,0,0,1,4.34,7.78,7.78,0,0,0,7,4.16Z" transform="translate(-383.56 -233.52)"/><path class="cls-1" d="M670.36,412.31a13.72,13.72,0,0,1-6.7-1.61,11.85,11.85,0,0,1-4.59-4.46,12.72,12.72,0,0,1-1.66-6.52,13.4,13.4,0,0,1,1.57-6.56,11.46,11.46,0,0,1,4.34-4.45,12.37,12.37,0,0,1,6.36-1.61,11.44,11.44,0,0,1,6.09,1.56,10.28,10.28,0,0,1,3.88,4.32,14.18,14.18,0,0,1,1.34,6.34,1.92,1.92,0,0,1-.59,1.43,2.05,2.05,0,0,1-1.5.56H660.59v-3.63h18.18L676.9,399a9.76,9.76,0,0,0-.9-4.06,6.66,6.66,0,0,0-6.32-3.89,8.25,8.25,0,0,0-4.43,1.14,7.24,7.24,0,0,0-2.79,3.11,10.12,10.12,0,0,0-1,4.47,8.68,8.68,0,0,0,1.14,4.46,8.36,8.36,0,0,0,3.13,3.09,9.24,9.24,0,0,0,4.59,1.13,8.62,8.62,0,0,0,2.89-.52,9.08,9.08,0,0,0,2.38-1.2,2.6,2.6,0,0,1,1.48-.53,2,2,0,0,1,1.38.48,2.12,2.12,0,0,1,.82,1.5,1.62,1.62,0,0,1-.73,1.41,12.69,12.69,0,0,1-3.83,2A13.92,13.92,0,0,1,670.36,412.31Z" transform="translate(-383.56 -233.52)"/><path class="cls-1" d="M689.21,412.17a2.26,2.26,0,0,1-2.31-2.31V389.59a2.24,2.24,0,0,1,.66-1.68,2.3,2.3,0,0,1,4,1.68v20.27a2.28,2.28,0,0,1-.63,1.65A2.25,2.25,0,0,1,689.21,412.17Zm18.68,0a2.25,2.25,0,0,1-1.66-.66,2.22,2.22,0,0,1-.66-1.65V398.68a8.32,8.32,0,0,0-1-4.22,6,6,0,0,0-2.57-2.43,8.28,8.28,0,0,0-3.7-.8,7.68,7.68,0,0,0-3.46.77,6.48,6.48,0,0,0-2.45,2.07,5,5,0,0,0-.91,3h-2.86a9.59,9.59,0,0,1,1.38-5.11,10.1,10.1,0,0,1,3.8-3.56,11,11,0,0,1,5.4-1.32,11.7,11.7,0,0,1,5.62,1.34,9.59,9.59,0,0,1,3.9,3.93,13,13,0,0,1,1.43,6.36v11.18a2.26,2.26,0,0,1-2.31,2.31Z" transform="translate(-383.56 -233.52)"/><path class="cls-1" d="M737.1,412.13a6,6,0,0,1-3.55-1.09,7.29,7.29,0,0,1-2.41-3,10.41,10.41,0,0,1-.86-4.34v-24.8a2.18,2.18,0,0,1,2.27-2.27,2.16,2.16,0,0,1,2.27,2.27v24.8a5.46,5.46,0,0,0,.64,2.77,1.86,1.86,0,0,0,1.64,1.09h1.13a1.91,1.91,0,0,1,1.48.64,2.36,2.36,0,0,1,.57,1.64,1.94,1.94,0,0,1-.87,1.63,3.59,3.59,0,0,1-2.22.64Z" transform="translate(-383.56 -233.52)"/><path class="cls-1" d="M755.13,412.31a13.72,13.72,0,0,1-6.7-1.61,11.85,11.85,0,0,1-4.59-4.46,12.72,12.72,0,0,1-1.66-6.52,13.4,13.4,0,0,1,1.57-6.56,11.46,11.46,0,0,1,4.34-4.45,12.37,12.37,0,0,1,6.36-1.61,11.44,11.44,0,0,1,6.09,1.56,10.28,10.28,0,0,1,3.88,4.32,14.32,14.32,0,0,1,1.34,6.34,1.92,1.92,0,0,1-.59,1.43,2.05,2.05,0,0,1-1.5.56H745.36v-3.63h18.18L761.67,399a9.61,9.61,0,0,0-.91-4.06,6.63,6.63,0,0,0-6.31-3.89,8.25,8.25,0,0,0-4.43,1.14,7.24,7.24,0,0,0-2.79,3.11,10.12,10.12,0,0,0-1,4.47,8.68,8.68,0,0,0,1.14,4.46,8.36,8.36,0,0,0,3.13,3.09,9.24,9.24,0,0,0,4.59,1.13,8.62,8.62,0,0,0,2.89-.52,9.24,9.24,0,0,0,2.38-1.2,2.6,2.6,0,0,1,1.48-.53,2,2,0,0,1,1.38.48,2.12,2.12,0,0,1,.82,1.5,1.62,1.62,0,0,1-.73,1.41,12.69,12.69,0,0,1-3.83,2A13.92,13.92,0,0,1,755.13,412.31Z" transform="translate(-383.56 -233.52)"/><path class="cls-1" d="M781.12,412.31A11,11,0,0,1,771,406.24a13.72,13.72,0,0,1-1.5-6.52,13,13,0,0,1,1.61-6.56,11.62,11.62,0,0,1,4.43-4.45,13.83,13.83,0,0,1,13,0,11.76,11.76,0,0,1,4.43,4.45,13.1,13.1,0,0,1,1.61,6.56h-2.68a14.57,14.57,0,0,1-1.39,6.52,11.07,11.07,0,0,1-3.79,4.46A9.77,9.77,0,0,1,781.12,412.31Zm.81,10.13a14.47,14.47,0,0,1-6-1.27,12.66,12.66,0,0,1-4.77-3.73,1.92,1.92,0,0,1-.43-1.59,2,2,0,0,1,.89-1.31,2.15,2.15,0,0,1,1.7-.37,2.32,2.32,0,0,1,1.43.91,8.46,8.46,0,0,0,3.09,2.41,10,10,0,0,0,4.23.86,8.08,8.08,0,0,0,4-1,7.61,7.61,0,0,0,2.93-3.09,10.62,10.62,0,0,0,1.09-5v-6.45l1.5-4,2.95,1v9.82a13.47,13.47,0,0,1-1.59,6.52,12.14,12.14,0,0,1-4.43,4.65A12.3,12.3,0,0,1,781.93,422.44Zm.1-14.22a8,8,0,0,0,4.18-1.09,7.64,7.64,0,0,0,2.83-3,9.09,9.09,0,0,0,1-4.41,9.25,9.25,0,0,0-1-4.43,7.54,7.54,0,0,0-2.83-3,8.49,8.49,0,0,0-8.36,0,7.7,7.7,0,0,0-2.87,3,9.26,9.26,0,0,0-1,4.43,9.09,9.09,0,0,0,1,4.41,7.81,7.81,0,0,0,2.87,3A7.92,7.92,0,0,0,782,408.22Z" transform="translate(-383.56 -233.52)"/><path class="cls-1" d="M811.78,412.31a10.91,10.91,0,0,1-5.95-1.66,11.8,11.8,0,0,1-4.16-4.5,13.42,13.42,0,0,1-1.52-6.43,12.6,12.6,0,0,1,1.66-6.45,12.55,12.55,0,0,1,21.72,0,12.69,12.69,0,0,1,1.65,6.45h-1.77a13.42,13.42,0,0,1-1.52,6.43,11.72,11.72,0,0,1-4.16,4.5A10.88,10.88,0,0,1,811.78,412.31Zm.91-4.09a7.74,7.74,0,0,0,4.13-1.11,7.88,7.88,0,0,0,2.87-3.05,9,9,0,0,0,1-4.34,9.14,9.14,0,0,0-1-4.38,7.85,7.85,0,0,0-2.87-3,7.66,7.66,0,0,0-4.13-1.12,7.74,7.74,0,0,0-4.11,1.12,8,8,0,0,0-2.91,3,8.93,8.93,0,0,0-1.07,4.38,8.81,8.81,0,0,0,1.07,4.34,8,8,0,0,0,2.91,3.05A7.82,7.82,0,0,0,812.69,408.22Zm10.18,3.95a2.25,2.25,0,0,1-1.66-.66,2.22,2.22,0,0,1-.66-1.65v-7l.86-4.81,3.77,1.63v10.14a2.26,2.26,0,0,1-2.31,2.31Z" transform="translate(-383.56 -233.52)"/><path class="cls-1" d="M838,412.13a6,6,0,0,1-3.54-1.09,7.29,7.29,0,0,1-2.41-3,10.41,10.41,0,0,1-.86-4.34v-24.8a2.18,2.18,0,0,1,2.27-2.27,2.16,2.16,0,0,1,2.27,2.27v24.8a5.36,5.36,0,0,0,.64,2.77,1.86,1.86,0,0,0,1.63,1.09h1.14a1.91,1.91,0,0,1,1.48.64,2.35,2.35,0,0,1,.56,1.64,1.93,1.93,0,0,1-.86,1.63,3.62,3.62,0,0,1-2.23.64Z" transform="translate(-383.56 -233.52)"/><path class="cls-1" d="M858,392.09a2.19,2.19,0,0,1-1.54-.54,1.77,1.77,0,0,1-.59-1.36,1.86,1.86,0,0,1,.59-1.46,2.19,2.19,0,0,1,1.54-.54h10.5a2.19,2.19,0,0,1,1.54.54,1.9,1.9,0,0,1,.59,1.46,1.8,1.8,0,0,1-.59,1.36,2.19,2.19,0,0,1-1.54.54Zm10.09,20A7.45,7.45,0,0,1,864,411a8.1,8.1,0,0,1-2.86-3.16,9.51,9.51,0,0,1-1-4.5V381.64a2.19,2.19,0,0,1,2.27-2.27,2.19,2.19,0,0,1,2.28,2.27v21.67a4.7,4.7,0,0,0,1,3.05,3.06,3.06,0,0,0,2.46,1.22h1.54a1.81,1.81,0,0,1,1.39.64,2.36,2.36,0,0,1,.57,1.64,2,2,0,0,1-.75,1.63,2.86,2.86,0,0,1-1.93.64Z" transform="translate(-383.56 -233.52)"/><path class="cls-1" d="M888.92,412.31a13.72,13.72,0,0,1-6.7-1.61,11.79,11.79,0,0,1-4.59-4.46,12.62,12.62,0,0,1-1.66-6.52,13.29,13.29,0,0,1,1.57-6.56,11.39,11.39,0,0,1,4.34-4.45,12.32,12.32,0,0,1,6.36-1.61,11.44,11.44,0,0,1,6.09,1.56,10.28,10.28,0,0,1,3.88,4.32,14.32,14.32,0,0,1,1.34,6.34,1.92,1.92,0,0,1-.59,1.43,2.05,2.05,0,0,1-1.5.56H879.15v-3.63h18.17L895.46,399a9.61,9.61,0,0,0-.91-4.06,6.63,6.63,0,0,0-6.31-3.89,8.25,8.25,0,0,0-4.43,1.14,7.33,7.33,0,0,0-2.8,3.11,10.25,10.25,0,0,0-1,4.47,8.68,8.68,0,0,0,1.14,4.46,8.29,8.29,0,0,0,3.13,3.09,9.19,9.19,0,0,0,4.59,1.13,8.52,8.52,0,0,0,2.88-.52,9.16,9.16,0,0,0,2.39-1.2,2.57,2.57,0,0,1,1.48-.53,2,2,0,0,1,1.38.48,2.12,2.12,0,0,1,.82,1.5,1.62,1.62,0,0,1-.73,1.41,12.63,12.63,0,0,1-3.84,2A13.86,13.86,0,0,1,888.92,412.31Z" transform="translate(-383.56 -233.52)"/><path class="cls-1" d="M915.81,412.31a12.54,12.54,0,0,1-6.47-1.66,11.94,11.94,0,0,1-4.45-4.5,12.72,12.72,0,0,1-1.62-6.43,13.25,13.25,0,0,1,1.59-6.54,11.59,11.59,0,0,1,4.37-4.47,12.32,12.32,0,0,1,6.36-1.61,11.62,11.62,0,0,1,4.9,1,11.74,11.74,0,0,1,4,3.06,1.63,1.63,0,0,1,.45,1.5,2.39,2.39,0,0,1-1,1.37,1.73,1.73,0,0,1-1.41.29,2.71,2.71,0,0,1-1.41-.79,7.3,7.3,0,0,0-5.54-2.37,7.77,7.77,0,0,0-4.09,1.07,7.38,7.38,0,0,0-2.77,3,9.5,9.5,0,0,0-1,4.49,9.15,9.15,0,0,0,1,4.37,7.79,7.79,0,0,0,2.84,3,7.93,7.93,0,0,0,4.22,1.11,9.15,9.15,0,0,0,2.8-.39,6.49,6.49,0,0,0,2.2-1.2,2.79,2.79,0,0,1,1.5-.66,1.82,1.82,0,0,1,1.36.43,2.21,2.21,0,0,1,.87,1.43,1.71,1.71,0,0,1-.55,1.44A11.59,11.59,0,0,1,915.81,412.31Z" transform="translate(-383.56 -233.52)"/><path class="cls-1" d="M934.17,403.09a2.26,2.26,0,0,1-2.32-2.32V379a2.24,2.24,0,0,1,.66-1.68,2.3,2.3,0,0,1,4,1.68v21.81a2.3,2.3,0,0,1-.63,1.66A2.24,2.24,0,0,1,934.17,403.09Zm0,9.08a2.25,2.25,0,0,1-1.66-.66,2.22,2.22,0,0,1-.66-1.65V389.59a2.24,2.24,0,0,1,.66-1.68,2.3,2.3,0,0,1,4,1.68v20.27a2.28,2.28,0,0,1-.63,1.65A2.24,2.24,0,0,1,934.17,412.17Zm18.67,0a2.25,2.25,0,0,1-1.66-.66,2.22,2.22,0,0,1-.66-1.65V398.68a8.32,8.32,0,0,0-.95-4.22A6,6,0,0,0,947,392a8.25,8.25,0,0,0-3.7-.8,7.67,7.67,0,0,0-3.45.77,6.59,6.59,0,0,0-2.46,2.07,5.07,5.07,0,0,0-.91,3h-2.86a9.51,9.51,0,0,1,1.39-5.11,10.07,10.07,0,0,1,3.79-3.56,11.08,11.08,0,0,1,5.41-1.32,11.63,11.63,0,0,1,5.61,1.34,9.59,9.59,0,0,1,3.9,3.93,13,13,0,0,1,1.44,6.36v11.18a2.22,2.22,0,0,1-.66,1.65A2.26,2.26,0,0,1,952.84,412.17Z" transform="translate(-383.56 -233.52)"/><path class="cls-2" d="M532.35,352.64" transform="translate(-383.56 -233.52)"/><path class="cls-1" d="M483.15,307.18a25.14,25.14,0,0,0-24.73-1.1,37.34,37.34,0,0,0,4.29,1.46,274.47,274.47,0,0,1-7.36,71.91c-1.26,5.19-2.72,10.24-2.72,10.24-1.27,4.4-2.53,8.29-3.65,11.57-5.71-3.44-19-12.77-27.75-27.93-5.82-10.06-8-20.46-6.59-30.94a25.46,25.46,0,0,0,4.09-1.24,18.64,18.64,0,0,0-19.53-.27,26.24,26.24,0,0,0,3.84,1.29,61.39,61.39,0,0,0,8.37,37.6c8.43,14.58,21.5,25.49,33.23,33.07-.83,2-1.89,4.59-3.18,7.5-2.53,5.7-4.72,10-5.63,11.75-2.29,4.42-5.27,9.81-9.07,15.82h17.95a245.63,245.63,0,0,0,25.58-64.83,289.45,289.45,0,0,0,7.81-74.72A38.61,38.61,0,0,0,483.15,307.18Z" transform="translate(-383.56 -233.52)"/><path class="cls-1" d="M396.83,339.71a20.9,20.9,0,0,1,24.34.3,25.72,25.72,0,1,0-24.34-.3Z" transform="translate(-383.56 -233.52)"/><path class="cls-1" d="M472.37,233.52a37.61,37.61,0,0,0-17.52,70.92,28.51,28.51,0,0,1,31.95,1.44,37.61,37.61,0,0,0-14.43-72.36Z" transform="translate(-383.56 -233.52)"/></svg>